<svg version="1.2" xmlns="http://www.w3.org/2000/svg" viewBox="0 0 1200 150" width="1200" height="150">
	<title>origin-splash</title>
	<style>
		.s0 { fill: #ffffff } 
		.s1 { fill: #ec3237 } 
	</style>
	<rect width="1200" height="150" id="Camada 1" style="fill: #373334"/>
	<path id="PORTAL DEMOCRATA" class="s0" aria-label="PORTAL DEMOCRATA"  d="m32.4 34h-14.2v84h14.2zm-5.8 0v12.5h16.9q7.4 0 11.8 3.5 4.4 3.3 4.4 10 0 6.8-4.4 10.2-4.4 3.5-11.8 3.5h-16.9v12.5h16.9q9.3 0 16-3.1 6.7-3.3 10.4-9.1 3.9-5.9 3.9-14 0-8-3.9-13.8-3.7-5.8-10.4-9-6.7-3.2-16-3.2zm190 43.9h-15.2l26.6 40.1h17.2zm-18.5-43.9h-14.2v84h14.2zm-5.8 0v12.2h16.9q5 0 8.6 1.7 3.6 1.7 5.6 4.8 2 3.1 2 7.7 0 4.4-2 7.7-2 3.1-5.6 4.8-3.6 1.5-8.6 1.5h-16.9v11.8h17.5q9.3 0 16-3.3 6.7-3.2 10.4-9.1 3.9-5.9 3.9-13.8 0-7.9-3.9-13.7-3.7-5.8-10.4-9.1-6.7-3.2-16-3.2zm54.6 0v13.1h22.2v70.9h14.2v-70.9h22.2v-13.1zm69.7 50.4l-2.7 12h44.4l-2.7-12zm6 4.2l13.2-30.9 13.5 31.2 0.2 3.5 11.4 25.6h16.1l-41.2-88.7-41 88.7h15.9l11.7-26.3zm78.1-54.6h-14.2v84h47.6v-12.7h-33.4zm94.1 0h-14.5v84h14.5zm-5.8 84h18.4q12.8 0 22.5-5.2 9.8-5.3 15.2-14.6 5.5-9.5 5.5-22.2 0-12.7-5.5-22.1-5.4-9.5-15.2-14.6-9.7-5.3-22.5-5.3h-18.4v13.3h18q6.3 0 11.5 1.8 5.3 1.8 9.2 5.4 3.9 3.6 6.1 9 2.3 5.4 2.3 12.5 0 7.1-2.3 12.5-2.2 5.4-6.1 9-3.9 3.4-9.2 5.4-5.2 1.8-11.5 1.8h-18zm84.1-12.5v12.5h42.4v-12.5zm0-71.5v12.4h42.4v-12.4zm0 32.8v12.3h39.9v-12.3zm5.2-32.8h-13.9v84h13.9zm64.4 84l5.8-51.2 25.5 43.4 25.7-43.4 5.8 51.2h14.6l-11.5-88.2-34.6 57-34.4-57-11.5 88.2zm198.2-42q0-9 4-15.6 4.1-6.8 10.5-10.4 6.5-3.7 14.2-3.7 6 0 10.8 1.6 4.9 1.5 8.8 4.3 3.8 2.6 6.7 6v-16.8q-5.2-4.4-11.4-6.7-6.1-2.3-15.4-2.3-9.2 0-17.3 3.2-7.9 3.2-13.8 9-5.8 5.8-9.2 13.8-3.2 8-3.2 17.6 0 9.4 3.2 17.5 3.4 7.9 9.2 13.8 5.9 5.9 13.8 9 8.1 3.1 17.3 3.1 9.3 0 15.4-2.3 6.2-2.3 11.4-6.6v-16.9q-2.9 3.5-6.7 6.2-3.9 2.7-8.8 4.2-4.8 1.6-10.8 1.6-7.7 0-14.2-3.7-6.4-3.7-10.5-10.3-4-6.8-4-15.6zm105 1.9h-15.2l26.6 40.1h17.2zm-18.5-44h-14.2v84h14.2zm-5.8 0v12.3h17q4.9 0 8.5 1.7 3.6 1.6 5.6 4.8 2.1 3.1 2.1 7.6 0 4.5-2.1 7.7-2 3.1-5.6 4.8-3.6 1.6-8.5 1.6h-17v11.7h17.6q9.2 0 15.9-3.2 6.7-3.2 10.5-9.1 3.8-5.9 3.8-13.8 0-7.9-3.8-13.7-3.8-5.9-10.5-9.1-6.7-3.3-15.9-3.3zm75.8 50.4l-2.8 12h44.4l-2.6-12zm6 4.2l13.2-30.8 13.4 31.2 0.3 3.5 11.4 25.5h16.1l-41.2-88.6-41 88.6h15.9l11.7-26.2zm47.1-54.6v13h22.2v71h14.2v-71h22.2v-13zm69.7 50.4l-2.8 12h44.4l-2.6-12zm6 4.2l13.2-30.9 13.4 31.2 0.3 3.5 11.4 25.6h16.1l-41.2-88.7-41 88.7h15.9l11.7-26.3z"/>
	<path id="PORTAL DEMOCRATA" class="s1" aria-label="PORTAL DEMOCRATA"  d="m97.8 76q0-8.6 3.7-15.4 3.7-6.8 10.1-10.6 6.5-3.9 14.7-3.9 8.6 0 14.9 3.9 6.5 3.8 10.1 10.6 3.6 6.8 3.6 15.4 0 8.6-3.7 15.4-3.6 6.7-10.1 10.6-6.4 3.9-14.8 3.9-8.2 0-14.7-3.9-6.4-3.9-10.1-10.6-3.7-6.8-3.7-15.4zm-15 0q0 9.4 3.2 17.4 3.3 8 9.1 13.9 5.9 5.9 13.8 9.3 8.1 3.2 17.4 3.2 9.6 0 17.6-3.2 7.9-3.4 13.8-9.3 5.8-5.9 9.1-13.9 3.2-8 3.2-17.4 0-9.5-3.2-17.4-3.3-7.9-9.3-13.7-5.8-5.9-13.8-9.1-7.9-3.4-17.4-3.4-9.2 0-17.2 3.4-8 3.2-14 9.1-5.8 5.8-9.1 13.7-3.2 7.9-3.2 17.4zm661.5 0q0-8.6 3.8-15.4 3.7-6.8 10-10.6 6.5-3.9 14.8-3.9 8.5 0 14.9 3.9 6.5 3.8 10.1 10.6 3.6 6.8 3.6 15.4 0 8.6-3.8 15.4-3.6 6.7-10 10.6-6.4 3.9-14.8 3.9-8.3 0-14.8-3.9-6.3-3.9-10-10.6-3.8-6.8-3.8-15.4zm-15 0q0 9.4 3.3 17.4 3.2 8 9.1 13.9 5.9 5.9 13.8 9.3 8 3.2 17.4 3.2 9.6 0 17.5-3.2 7.9-3.4 13.8-9.3 5.9-5.9 9.1-13.9 3.3-8 3.3-17.4 0-9.5-3.3-17.4-3.2-7.9-9.2-13.7-5.9-5.9-13.8-9.1-7.9-3.4-17.4-3.4-9.2 0-17.3 3.4-7.9 3.2-13.9 9.1-5.9 5.8-9.1 13.7-3.3 7.9-3.3 17.4z"/>
</svg>